{"title":"Gang.Related.1997.iNTERNAL.DVDRip.XviD-EXViDiNT","uid":7058262,"size":745000183,"categoryP":"video","categoryS":"movies","magnet":"?xt=urn:btih:16f10fd4d9b89b4106e68a1c3c81697905f40a2f&amp;dn=Gang.Related.1997.iNTERNAL.DVDRip.XviD-EXViDiNT&amp;tr=udp%3A%2F%2Ftracker.openbittorrent.com%3A80&amp;tr=udp%3A%2F%2Fopen.demonii.com%3A1337&amp;tr=udp%3A%2F%2Ftracker.coppersurfer.tk%3A6969&amp;tr=udp%3A%2F%2Fexodus.desync.com%3A6969","seeders":4,"leechers":0,"uploader":"TvTeam","files":6,"time":1330236968,"description":". \n &lt;a href=&quot;\nhttp://www.torrenting.com&quot; rel=&quot;nofollow&quot; target=&quot;_NEW&quot;&gt;\nhttp://www.torrenting.com&lt;/a&gt;          :     Once &amp; For all ;)\n\n\n               www . Torrenting . Com \n\n(((((((((((((= Enjoy No RAR releases =))))))))))))))))))))\n\n\n...................................NFO:....................................\n\n.                                                                                                     \n       \n     \n     \n       \n       \n     \n     \n                                         \n                                         \n                EXVID                    \n                                         \n         \n                                         \n         Filled the Archives             \n                                         \n         \n                                         \n                With:                    \n                                         \n         \n                                         \n                                    \n     E240                           \n                                    \n     SP               (C) 2009      \n                                         \n     \n     \n     \n                                                                                  \n                                                                                   \n                Gang.Related.1997.iNTERNAL.DVDRip.XviD-EXViDiNT                     \n                                                                                   \n                                                                                  \n     \n                                                                                               \nEXViD aims to iNTERNAL those releases which have been lost in the archives.\nEXViD aims to PRE non-internal releases which have poor sources and are likely skipped by others. &lt;a href=&quot;\nhttp://www.imdb.com/title/tt0118900/&quot; rel=&quot;nofollow&quot; target=&quot;_NEW&quot;&gt;\nhttp://www.imdb.com/title/tt0118900/&lt;/a&gt;\nSubtitles: DA, SV, NO, FI\nDate: 2012.02\n\nDirector: Jim Kouf\n\nGenres: Crime | Drama\n\nPlot:\nTwo corrupt cops murder an undercover DEA agent by mistake, and frantically try to cover their\ntracks by framing a homeless man for the crime. That involves juggling evidence, coaching\nwitnesses, and improvising to keep their desperate scheme from unraveling.\n\nCast:\nJames Belushi\t...\tDet. Frank Divinci\nTupac Shakur\t...\tDet. Rodriguez\nLela Rochon\t...\tCynthia Webb\nDennis Quaid\t...\tJoe Doe / William\nJames Earl Jones\t...\tArthur Baylor\nDavid Paymer\t...\tElliot Goff\nWendy Crewson\t...\tHelen Eden\nGary Cole\t...\tRichard Simms\nTerrence 'T.C.' Carson\t...\tManny Landrew\nBrad Greenquist\t...\tRichard Stein\nJames Handy\t...\tCapt. Henderson\nKool Moe Dee\t...\tLionel Hudd\nVictor Love\t...\tHooper\nRobert LaSardo\t...\tSarkasian\nPerry Anzilotti\t...\tVic\n\nStats:\nFormat                                   : AVI\nFormat/Info                              : Audio Video Interleave\nFile size                                : 702 MiB\nDuration                                 : 1h 46mn\nOverall bit rate mode                    : Variable\nOverall bit rate                         : 920 Kbps\nWriting library                          : VirtualDub build 32842/release\n\nVideo\nID                                       : 0\nFormat                                   : MPEG-4 Visual\nFormat profile                           : Advanced Simple@L5\nFormat settings, BVOP                    : 2\nFormat settings, QPel                    : No\nFormat settings, GMC                     : No warppoints\nFormat settings, Matrix                  : Default (H.263)\nCodec ID                                 : XVID\nCodec ID/Hint                            : XviD\nDuration                                 : 1h 46mn\nBit rate                                 : 787 Kbps\nWidth                                    : 624 pixels\nHeight                                   : 272 pixels\nDisplay aspect ratio                     : 2.25:1\nFrame rate                               : 25.000 fps\nColor space                              : YUV\nChroma subsampling                       : 4:2:0\nBit depth                                : 8 bits\nScan type                                : Progressive\nCompression mode                         : Lossy\nBits/(Pixel*Frame)                       : 0.185\nStream size                              : 600 MiB (85%)\nWriting library                          : XviD 64\n\nAudio\nID                                       : 1\nFormat                                   : MPEG Audio\nFormat version                           : Version 1\nFormat profile                           : Layer 3\nMode                                     : Joint stereo\nMode extension                           : MS Stereo\nCodec ID                                 : 55\nCodec ID/Hint                            : MP3\nDuration                                 : 1h 46mn\nBit rate mode                            : Variable\nBit rate                                 : 121 Kbps\nChannel(s)                               : 2 channels\nSampling rate                            : 48.0 KHz\nCompression mode                         : Lossy\nDelay relative to video                  : 5ms\nStream size                              : 92.1 MiB (13%)\nAlignment                                : Split accross interleaves\nInterleave, duration                     : 24 ms (0.60 video frame)\nInterleave, preload duration             : 843 ms\n\n\n\nRelease notes:\nEnjoy!\n\nLooking for:\n75TB+ Archives\nDUTCH/FLEMiSH Archives\n                                                                                                    \nGreets: CRBS EPiSODE FiCO FLS iLS KLASSiGER LiPSYNC MADE NODLABS RUNNER SPRiNTER      \n   \n\n                                                                    ASCII DONE BY XX^NFO 2oo9     \n \n\nRLS-Crc: 415243414445:42EECD90","torrent":{"xt":"urn:btih:16f10fd4d9b89b4106e68a1c3c81697905f40a2f","amp;dn":"Gang.Related.1997.iNTERNAL.DVDRip.XviD-EXViDiNT","amp;tr":["udp%3A%2F%2Ftracker.openbittorrent.com%3A80","udp%3A%2F%2Fopen.demonii.com%3A1337","udp%3A%2F%2Ftracker.coppersurfer.tk%3A6969","udp%3A%2F%2Fexodus.desync.com%3A6969"],"infoHash":"16f10fd4d9b89b4106e68a1c3c81697905f40a2f","infoHashBuffer":{"type":"Buffer","data":[22,241,15,212,217,184,155,65,6,230,138,28,60,129,105,121,5,244,10,47]},"announce":[],"urlList":[]}}